<svg width="451" height="309" viewBox="0 0 451 309" fill="none" xmlns="http://www.w3.org/2000/svg">
<path d="M30.3512 232.849C28.2096 232.849 26.0637 232.938 23.968 233.119L23.663 233.145C9.7621 234.39 -0.405732 241.612 0.0124425 249.946L0.0932853 251.453C0.146597 252.405 0.203399 253.429 0.250153 254.565C0.275475 255.126 1.03015 255.556 1.9692 255.556H343.897C368.004 255.407 392.024 255.221 415.286 255.001C419.649 255.01 424.009 254.781 428.347 254.315C434.812 253.54 439.298 252.004 442.065 249.618H442.066C445.507 246.66 445.615 242.934 445.407 238.725C444.983 230.227 444.563 221.298 444.143 212.397C443.773 204.552 443.404 196.729 443.035 189.238C442.807 184.793 442.3 180.869 438.393 177.87C434.158 174.627 426.434 172.983 415.435 172.983C415.303 172.983 415.171 172.983 415.036 172.984C380.568 173.108 346.415 185.115 330.053 202.863C328.168 204.906 326.413 207.094 324.715 209.21C322.206 212.336 319.612 215.568 316.516 218.459C314.84 220.045 313.028 221.476 311.1 222.736C310.968 222.829 310.815 222.928 310.655 223.023C310.287 223.266 309.902 223.5 309.527 223.709C307.332 224.993 305.019 226.058 302.621 226.89L302.378 226.972C302.196 227.038 301.999 227.104 301.801 227.164C300.416 227.615 298.977 228.004 297.536 228.319C291.298 229.712 284.206 230.046 276.456 229.311C269.339 228.618 262.314 227.167 255.497 224.984C248.321 222.686 241.603 219.821 235.107 217.051C232.254 215.834 229.303 214.575 226.355 213.383C225.801 213.158 225.256 212.939 224.703 212.72C221.104 211.298 217.84 210.125 214.726 209.131C207.011 206.66 199.026 205.161 190.95 204.669C182.377 204.194 174.823 205.091 168.502 207.329C166.759 207.943 165.062 208.684 163.424 209.545C155.937 213.484 151.321 219.298 146.858 224.92C141.306 231.913 135.565 239.145 124.228 242.893C111.146 247.223 92.0517 245.424 78.5423 242.296C74.295 241.313 70.0529 240.181 65.9502 239.086C64.2932 238.644 62.6351 238.205 60.9757 237.769C57.7151 236.916 55.0465 236.262 52.5776 235.711L51.7968 235.535C51.3624 235.439 50.9276 235.344 50.485 235.253C47.5525 234.629 44.8219 234.138 42.1328 233.752L41.4965 233.658C40.221 233.488 39.0285 233.346 37.8583 233.227L37.3912 233.18C35.0993 232.959 32.7274 232.849 30.3512 232.849Z" fill="#F2F2F2"/>
<path d="M383.924 242.149C393.545 233.366 407.856 228.949 419.86 233.874C407.547 240.8 398.048 251.916 393.045 265.254C391.134 270.405 389.538 276.336 384.837 279.094C381.913 280.81 378.274 280.894 374.995 280.065C371.716 279.237 368.71 277.576 365.745 275.932L364.901 275.913C368.688 263.365 374.303 250.933 383.924 242.149Z" fill="#E6E6E6"/>
<path d="M419.793 234.141C409.161 235.533 399.233 240.283 391.418 247.717C389.708 249.288 388.252 251.121 387.105 253.15C386.051 255.164 385.548 257.426 385.649 259.703C385.701 261.828 385.997 263.995 385.538 266.096C385.288 267.168 384.816 268.174 384.155 269.048C383.494 269.922 382.658 270.645 381.702 271.169C379.352 272.537 376.658 272.968 374.009 273.297C371.067 273.662 368.006 273.994 365.46 275.666C365.151 275.868 364.859 275.372 365.167 275.169C369.597 272.261 375.203 273.319 379.966 271.378C382.189 270.473 384.156 268.883 384.852 266.479C385.461 264.377 385.158 262.142 385.087 259.991C384.956 257.772 385.364 255.553 386.275 253.53C387.316 251.448 388.699 249.561 390.365 247.949C394.059 244.26 398.303 241.183 402.941 238.829C408.219 236.113 413.917 234.332 419.788 233.563C420.151 233.515 420.154 234.094 419.793 234.141H419.793Z" fill="white"/>
<path d="M393.795 245.174C392.742 243.676 392.249 241.848 392.403 240.016C392.558 238.183 393.35 236.466 394.639 235.171C394.9 234.91 395.313 235.31 395.051 235.571C393.849 236.775 393.111 238.374 392.971 240.081C392.83 241.787 393.297 243.488 394.285 244.877C394.5 245.179 394.009 245.474 393.795 245.174V245.174Z" fill="white"/>
<path d="M385.483 258.629C389.136 259.285 392.9 258.522 396.022 256.491C396.331 256.29 396.624 256.787 396.315 256.988C393.061 259.095 389.144 259.881 385.343 259.19C384.981 259.124 385.123 258.564 385.483 258.629Z" fill="white"/>
<path d="M408.265 236.879C408.553 237.544 409 238.127 409.566 238.574C410.131 239.021 410.798 239.319 411.505 239.441C411.868 239.502 411.726 240.063 411.365 240.002C410.584 239.863 409.849 239.533 409.223 239.041C408.597 238.548 408.1 237.907 407.775 237.175C407.739 237.109 407.729 237.031 407.747 236.957C407.765 236.883 407.811 236.82 407.874 236.779C407.939 236.74 408.016 236.728 408.09 236.747C408.163 236.766 408.226 236.813 408.265 236.879Z" fill="white"/>
<path d="M433.079 276.233C432.851 276.202 432.623 276.17 432.392 276.141C429.33 275.73 426.239 275.571 423.151 275.666C422.912 275.669 422.67 275.677 422.432 275.687C414.995 275.997 407.679 277.703 400.856 280.719C398.142 281.921 395.523 283.331 393.02 284.936C389.564 287.153 385.991 289.836 382.127 290.74C381.725 290.839 381.317 290.912 380.906 290.96L364.943 276.957C364.923 276.907 364.899 276.86 364.878 276.81L364.216 276.28C364.339 276.188 364.469 276.095 364.592 276.004C364.664 275.95 364.739 275.899 364.81 275.846C364.859 275.811 364.908 275.776 364.95 275.742C364.966 275.731 364.982 275.719 364.995 275.711C365.037 275.677 365.08 275.65 365.118 275.619C365.843 275.099 366.573 274.584 367.307 274.072C367.31 274.069 367.31 274.069 367.317 274.068C372.876 270.117 378.879 266.848 385.198 264.33C385.388 264.257 385.581 264.181 385.777 264.115C388.623 263.043 391.551 262.208 394.531 261.619C396.164 261.302 397.812 261.069 399.468 260.921C403.748 260.546 408.06 260.855 412.245 261.838C420.588 263.798 428.219 268.439 432.738 275.677C432.854 275.862 432.966 276.044 433.079 276.233Z" fill="#E6E6E6"/>
<path d="M432.867 276.407C423.551 271.034 412.801 268.771 402.143 269.939C399.845 270.15 397.593 270.726 395.471 271.647C393.433 272.611 391.687 274.111 390.415 275.99C389.193 277.719 388.142 279.63 386.527 281.027C385.69 281.73 384.716 282.246 383.668 282.54C382.621 282.835 381.524 282.902 380.449 282.737C377.76 282.396 375.353 281.097 373.042 279.744C370.476 278.241 367.834 276.64 364.808 276.421C364.441 276.395 364.503 275.82 364.869 275.846C370.135 276.226 373.982 280.49 378.939 281.846C381.252 282.479 383.767 282.409 385.751 280.915C387.486 279.608 388.572 277.638 389.794 275.877C391.009 274.025 392.653 272.503 394.582 271.443C396.651 270.416 398.877 269.753 401.165 269.483C406.307 268.79 411.524 268.921 416.626 269.871C422.454 270.922 428.062 272.975 433.207 275.942C433.525 276.126 433.183 276.59 432.867 276.407V276.407Z" fill="white"/>
<path d="M405.553 269.358C405.602 267.52 406.295 265.759 407.507 264.391C408.719 263.022 410.372 262.135 412.171 261.887C412.535 261.838 412.627 262.409 412.262 262.458C410.587 262.685 409.047 263.512 407.921 264.789C406.795 266.066 406.156 267.709 406.121 269.421C406.112 269.793 405.545 269.728 405.553 269.358V269.358Z" fill="white"/>
<path d="M390.92 275.032C393.447 277.784 396.905 279.47 400.605 279.753C400.972 279.781 400.91 280.356 400.544 280.328C396.694 280.026 393.099 278.264 390.475 275.394C390.225 275.12 390.671 274.759 390.92 275.032H390.92Z" fill="white"/>
<path d="M422.036 271.561C421.871 272.268 421.881 273.006 422.067 273.708C422.253 274.41 422.608 275.055 423.1 275.583C423.353 275.854 422.907 276.214 422.655 275.946C422.114 275.359 421.723 274.647 421.516 273.872C421.309 273.097 421.293 272.282 421.469 271.499C421.479 271.424 421.517 271.355 421.576 271.308C421.634 271.26 421.708 271.237 421.783 271.243C421.858 271.251 421.927 271.29 421.974 271.349C422.022 271.409 422.044 271.485 422.036 271.561Z" fill="white"/>
<path d="M132.062 250.885C139.94 238.779 154.033 230.022 168.224 231.906C156.956 242.784 149.849 257.35 148.161 273.026C147.532 279.074 147.453 285.867 143.183 290.141C140.526 292.801 136.658 293.916 132.923 293.954C129.188 293.993 125.517 293.064 121.895 292.141L120.987 292.358C121.592 277.87 124.183 262.991 132.062 250.885Z" fill="#E6E6E6"/>
<path d="M168.225 232.21C157.237 236.696 147.923 244.575 141.606 254.728C140.207 256.89 139.154 259.261 138.485 261.754C137.91 264.205 137.994 266.767 138.727 269.173C139.366 271.431 140.278 273.666 140.364 276.042C140.39 277.259 140.162 278.467 139.695 279.589C139.228 280.71 138.532 281.719 137.653 282.549C135.516 284.674 132.753 285.895 130.01 286.993C126.964 288.213 123.781 289.431 121.517 291.936C121.243 292.24 120.794 291.791 121.068 291.488C125.007 287.129 131.293 286.681 135.855 283.262C137.984 281.667 139.651 279.412 139.735 276.645C139.809 274.226 138.871 271.92 138.204 269.64C137.455 267.303 137.282 264.815 137.701 262.395C138.243 259.875 139.204 257.466 140.543 255.273C143.481 250.286 147.175 245.799 151.488 241.974C156.388 237.582 161.993 234.071 168.061 231.593C168.436 231.44 168.598 232.058 168.225 232.21L168.225 232.21Z" fill="white"/>
<path d="M143.45 251.337C141.912 250.032 140.882 248.216 140.544 246.213C140.207 244.21 140.583 242.15 141.605 240.402C141.813 240.049 142.365 240.36 142.156 240.714C141.201 242.34 140.851 244.258 141.169 246.123C141.488 247.988 142.453 249.676 143.892 250.882C144.205 251.145 143.76 251.599 143.45 251.337Z" fill="white"/>
<path d="M138.254 268.072C142.342 267.743 146.157 265.866 148.939 262.814C149.214 262.512 149.663 262.961 149.388 263.263C146.487 266.433 142.513 268.379 138.259 268.711C137.853 268.742 137.851 268.103 138.254 268.072H138.254Z" fill="white"/>
<path d="M156.648 238.387C157.139 239.018 157.777 239.515 158.504 239.834C159.232 240.153 160.026 240.284 160.816 240.215C161.221 240.178 161.223 240.818 160.821 240.854C159.948 240.926 159.071 240.78 158.266 240.43C157.461 240.079 156.754 239.534 156.205 238.842C156.148 238.782 156.116 238.701 156.115 238.617C156.114 238.533 156.145 238.452 156.202 238.391C156.261 238.331 156.34 238.297 156.424 238.296C156.507 238.295 156.588 238.328 156.648 238.387H156.648Z" fill="white"/>
<path d="M193.993 273.485C193.741 273.515 193.489 273.545 193.234 273.58C189.845 274.003 186.496 274.704 183.22 275.676C182.965 275.747 182.708 275.823 182.456 275.901C174.587 278.329 167.231 282.216 160.762 287.364C158.189 289.415 155.775 291.661 153.539 294.083C150.451 297.429 147.366 301.305 143.482 303.361C143.08 303.58 142.664 303.773 142.237 303.94L121.319 293.463C121.283 293.415 121.245 293.371 121.209 293.323L120.355 292.944C120.462 292.811 120.575 292.675 120.682 292.542C120.744 292.464 120.81 292.389 120.871 292.312C120.914 292.261 120.957 292.21 120.992 292.162C121.006 292.145 121.021 292.128 121.032 292.116C121.068 292.067 121.106 292.026 121.139 291.983C121.771 291.222 122.41 290.465 123.055 289.711C123.058 289.706 123.058 289.706 123.065 289.704C127.994 283.972 133.439 278.606 139.515 274.249C139.698 274.118 139.883 273.982 140.075 273.856C142.825 271.907 145.727 270.189 148.753 268.719C150.412 267.92 152.11 267.206 153.841 266.58C158.316 264.973 163.012 264.089 167.758 263.96C177.219 263.705 186.655 266.518 193.477 272.986C193.651 273.151 193.821 273.314 193.993 273.485Z" fill="#E6E6E6"/>
<path d="M193.815 273.73C182.376 270.609 170.256 271.218 159.179 275.472C156.778 276.345 154.528 277.596 152.511 279.179C150.596 280.785 149.141 282.881 148.296 285.25C147.464 287.443 146.864 289.783 145.521 291.733C144.819 292.72 143.919 293.546 142.879 294.157C141.84 294.767 140.685 295.148 139.49 295.274C136.521 295.668 133.589 294.957 130.746 294.161C127.589 293.277 124.324 292.308 121.027 292.928C120.628 293.003 120.536 292.37 120.935 292.295C126.671 291.218 131.956 294.694 137.63 294.747C140.278 294.772 142.949 293.989 144.66 291.831C146.157 289.944 146.778 287.531 147.601 285.304C148.392 282.981 149.732 280.889 151.505 279.212C153.435 277.53 155.634 276.194 158.007 275.259C163.316 273.07 168.932 271.739 174.649 271.317C181.171 270.799 187.733 271.414 194.05 273.137C194.441 273.244 194.203 273.836 193.815 273.73Z" fill="white"/>
<path d="M162.666 273.89C162.214 271.91 162.471 269.832 163.392 268.026C164.312 266.221 165.837 264.806 167.692 264.034C168.068 263.879 168.323 264.463 167.947 264.618C166.218 265.334 164.798 266.652 163.944 268.335C163.09 270.019 162.858 271.955 163.29 273.796C163.383 274.197 162.759 274.288 162.666 273.89H162.666Z" fill="white"/>
<path d="M148.573 284.082C152.032 286.313 156.194 287.141 160.229 286.402C160.628 286.328 160.72 286.961 160.321 287.034C156.121 287.796 151.791 286.925 148.197 284.595C147.855 284.373 148.232 283.861 148.573 284.082V284.082Z" fill="white"/>
<path d="M180.9 271.6C180.917 272.403 181.131 273.189 181.523 273.888C181.914 274.586 182.47 275.175 183.142 275.602C183.487 275.82 183.109 276.332 182.766 276.115C182.026 275.64 181.412 274.989 180.978 274.218C180.544 273.447 180.303 272.581 180.276 271.694C180.266 271.61 180.289 271.526 180.338 271.459C180.387 271.391 180.46 271.346 180.542 271.331C180.624 271.319 180.708 271.34 180.775 271.391C180.843 271.441 180.887 271.517 180.9 271.6V271.6Z" fill="white"/>
<path d="M188.131 160.122C188.653 159.595 189.056 158.958 189.309 158.257C189.563 157.555 189.662 156.806 189.598 156.062C189.535 155.317 189.312 154.596 188.944 153.949C188.576 153.301 188.072 152.744 187.468 152.315L195.702 111.944L186.819 114.783L180.194 153.839C179.551 154.914 179.319 156.192 179.542 157.429C179.766 158.666 180.43 159.777 181.408 160.552C182.386 161.326 183.611 161.71 184.85 161.631C186.089 161.552 187.256 161.015 188.131 160.122Z" fill="#FFB6B6"/>
<path d="M207.162 52.2098L201.659 48.0017C201.659 48.0017 196.805 47.6534 195.946 56.5221C195.086 65.3908 189.703 99.4285 189.703 99.4285L181.283 138.938L192.939 141.53L201.957 98.8922L210.985 69.4761L207.162 52.2098Z" fill="#E6E6E6"/>
<path d="M202.97 125.317L176.575 104.525C176.164 104.2 175.896 103.723 175.832 103.199C175.767 102.675 175.91 102.147 176.23 101.73L194.188 78.3299C194.509 77.9134 194.979 77.6426 195.497 77.5771C196.014 77.5115 196.535 77.6565 196.947 77.9801L223.342 98.7728C223.753 99.0975 224.021 99.574 224.085 100.098C224.15 100.622 224.007 101.151 223.688 101.568L205.729 124.968C205.408 125.384 204.938 125.655 204.421 125.72C203.903 125.786 203.382 125.641 202.97 125.317Z" fill="#3F3D56"/>
<path d="M202.825 123.166L178.669 104.137C178.304 103.849 178.067 103.425 178.009 102.96C177.952 102.495 178.079 102.026 178.362 101.655L194.643 80.4423C194.927 80.0724 195.345 79.8321 195.804 79.7738C196.264 79.7156 196.727 79.8443 197.092 80.1317L221.248 99.1606C221.613 99.4488 221.851 99.8719 221.908 100.337C221.966 100.802 221.839 101.272 221.555 101.642L205.274 122.855C204.99 123.225 204.572 123.465 204.113 123.524C203.654 123.582 203.19 123.453 202.825 123.166Z" fill="white"/>
<path d="M181.836 103.597C181.745 103.525 181.685 103.419 181.671 103.303C181.657 103.187 181.688 103.069 181.759 102.977L189.972 92.2756C190.043 92.183 190.148 92.1228 190.263 92.1083C190.319 92.1011 190.377 92.1053 190.432 92.1207C190.488 92.136 190.539 92.1623 190.585 92.1979C190.63 92.2336 190.668 92.2779 190.696 92.3284C190.724 92.3788 190.743 92.4344 190.75 92.4921C190.757 92.5497 190.753 92.6081 190.737 92.6641C190.722 92.7201 190.696 92.7725 190.661 92.8183L182.448 103.52C182.377 103.612 182.273 103.672 182.158 103.687C182.043 103.701 181.927 103.669 181.836 103.597Z" fill="#E4E4E4"/>
<path d="M183.197 104.67C183.106 104.598 183.046 104.492 183.032 104.375C183.018 104.259 183.049 104.142 183.12 104.049L191.333 93.3479C191.404 93.2553 191.509 93.1951 191.624 93.1806C191.739 93.166 191.854 93.1983 191.946 93.2702C192.037 93.3422 192.097 93.448 192.111 93.5644C192.125 93.6807 192.093 93.7981 192.022 93.8906L183.809 104.592C183.738 104.684 183.634 104.744 183.519 104.759C183.404 104.774 183.288 104.741 183.197 104.67Z" fill="#E4E4E4"/>
<path d="M189.211 99.6794C189.12 99.6073 189.06 99.5015 189.046 99.3852C189.032 99.2689 189.064 99.1515 189.134 99.0589L192.695 94.4202C192.73 94.3742 192.773 94.3358 192.823 94.307C192.873 94.2782 192.928 94.2596 192.985 94.2523C193.042 94.2451 193.1 94.2492 193.155 94.2646C193.21 94.28 193.262 94.3063 193.307 94.3419C193.353 94.3776 193.391 94.422 193.419 94.4725C193.447 94.5231 193.466 94.5788 193.473 94.6364C193.48 94.6941 193.475 94.7526 193.46 94.8087C193.445 94.8647 193.419 94.9171 193.384 94.9629L189.823 99.6017C189.752 99.6941 189.648 99.7542 189.533 99.7688C189.418 99.7834 189.302 99.7512 189.211 99.6794Z" fill="#E4E4E4"/>
<path d="M191.046 108.782C190.955 108.71 190.896 108.605 190.882 108.488C190.867 108.372 190.899 108.255 190.97 108.162L203.936 91.268C203.971 91.2221 204.015 91.1838 204.064 91.1551C204.114 91.1264 204.169 91.1079 204.226 91.1007C204.283 91.0935 204.341 91.0977 204.396 91.1131C204.451 91.1284 204.503 91.1547 204.548 91.1903C204.593 91.226 204.631 91.2703 204.66 91.3208C204.688 91.3712 204.706 91.4268 204.713 91.4844C204.72 91.542 204.716 91.6005 204.701 91.6565C204.686 91.7125 204.66 91.7649 204.625 91.8107L191.659 108.705C191.588 108.797 191.483 108.857 191.369 108.872C191.254 108.886 191.138 108.854 191.046 108.782Z" fill="#E4E4E4"/>
<path d="M192.408 109.855C192.316 109.783 192.257 109.677 192.243 109.561C192.228 109.444 192.26 109.327 192.331 109.234L205.297 92.3402C205.332 92.2944 205.376 92.256 205.426 92.2273C205.475 92.1986 205.53 92.1801 205.587 92.1729C205.644 92.1657 205.702 92.1699 205.757 92.1853C205.812 92.2007 205.864 92.227 205.909 92.2626C205.954 92.2982 205.992 92.3426 206.021 92.393C206.049 92.4435 206.067 92.4991 206.074 92.5567C206.081 92.6143 206.077 92.6728 206.062 92.7288C206.047 92.7848 206.021 92.8372 205.986 92.883L193.02 109.777C192.949 109.869 192.844 109.93 192.73 109.944C192.615 109.959 192.499 109.927 192.408 109.855Z" fill="#E4E4E4"/>
<path d="M195.498 112.289C195.406 112.217 195.347 112.111 195.333 111.995C195.318 111.878 195.35 111.761 195.421 111.668L208.387 94.7744C208.422 94.7286 208.466 94.6902 208.516 94.6615C208.565 94.6328 208.62 94.6143 208.677 94.6071C208.734 94.5999 208.792 94.6041 208.847 94.6195C208.902 94.6349 208.954 94.6611 208.999 94.6968C209.044 94.7324 209.082 94.7767 209.111 94.8272C209.139 94.8776 209.157 94.9333 209.164 94.9909C209.172 95.0485 209.167 95.107 209.152 95.1629C209.137 95.2189 209.111 95.2713 209.076 95.3171L196.11 112.211C196.039 112.304 195.934 112.364 195.82 112.378C195.705 112.393 195.589 112.361 195.498 112.289Z" fill="#E4E4E4"/>
<path d="M196.859 113.361C196.768 113.289 196.708 113.183 196.694 113.067C196.679 112.951 196.711 112.833 196.782 112.741L209.748 95.8467C209.783 95.8008 209.827 95.7625 209.877 95.7338C209.927 95.7051 209.981 95.6866 210.038 95.6794C210.095 95.6721 210.153 95.6764 210.208 95.6917C210.263 95.7071 210.315 95.7334 210.36 95.769C210.406 95.8047 210.443 95.849 210.472 95.8995C210.5 95.9499 210.518 96.0055 210.526 96.0631C210.533 96.1208 210.528 96.1792 210.513 96.2352C210.498 96.2912 210.472 96.3436 210.437 96.3894L197.471 113.283C197.4 113.376 197.296 113.436 197.181 113.451C197.066 113.465 196.95 113.433 196.859 113.361Z" fill="#E4E4E4"/>
<path d="M199.949 115.795C199.858 115.723 199.798 115.617 199.784 115.501C199.77 115.385 199.801 115.267 199.872 115.175L212.838 98.2809C212.873 98.235 212.917 98.1967 212.967 98.1679C213.017 98.1392 213.072 98.1208 213.128 98.1135C213.185 98.1063 213.243 98.1105 213.298 98.1259C213.353 98.1413 213.405 98.1676 213.45 98.2032C213.496 98.2388 213.534 98.2832 213.562 98.3336C213.59 98.3841 213.608 98.4397 213.616 98.4973C213.623 98.5549 213.619 98.6134 213.603 98.6694C213.588 98.7254 213.562 98.7778 213.527 98.8236L200.561 115.718C200.49 115.81 200.386 115.87 200.271 115.885C200.156 115.899 200.04 115.867 199.949 115.795Z" fill="#E4E4E4"/>
<path d="M201.31 116.867C201.219 116.795 201.159 116.69 201.145 116.573C201.131 116.457 201.163 116.34 201.233 116.247L214.199 99.3531C214.27 99.261 214.375 99.2012 214.489 99.1868C214.604 99.1725 214.72 99.2047 214.811 99.2766C214.902 99.3484 214.961 99.4539 214.976 99.57C214.99 99.6861 214.959 99.8033 214.888 99.8959L201.922 116.79C201.851 116.882 201.747 116.942 201.632 116.957C201.517 116.972 201.401 116.939 201.31 116.867Z" fill="#E4E4E4"/>
<path d="M179.64 136.487C179.739 136.487 179.819 136.406 179.819 136.306C179.819 136.206 179.739 136.124 179.64 136.124C179.541 136.124 179.461 136.206 179.461 136.306C179.461 136.406 179.541 136.487 179.64 136.487Z" fill="white"/>
<path d="M205.747 11.4119C205.117 14.8421 204.084 18.1836 202.669 21.365C194.57 38.7247 217.636 33.0663 225.879 33.0663C234.892 33.0663 243.516 37.8678 242.199 16.5332C241.636 7.41996 234.892 0 225.879 0C218.181 0 207.357 3.46668 205.747 11.4119Z" fill="#2F2E41"/>
<path d="M234.281 266.017H226.602L222.948 236.01H234.281V266.017Z" fill="#FFB6B6"/>
<path d="M238.334 279.496H232.827L231.844 274.229L229.326 279.496H214.721C214.021 279.496 213.339 279.27 212.775 278.849C212.211 278.429 211.795 277.837 211.586 277.16C211.378 276.483 211.389 275.756 211.617 275.085C211.845 274.415 212.279 273.836 212.855 273.433L224.519 265.272V259.947L236.787 260.689L238.334 279.496Z" fill="#2F2E41"/>
<path d="M279.901 256.199L273.739 260.841L253.133 238.971L262.227 232.12L279.901 256.199Z" fill="#FFB6B6"/>
<path d="M291.092 264.565L286.673 267.894L282.782 264.262L283.865 270.011L272.144 278.84C271.583 279.264 270.902 279.494 270.202 279.497C269.502 279.501 268.819 279.278 268.253 278.86C267.687 278.443 267.267 277.853 267.056 277.177C266.844 276.501 266.851 275.774 267.076 275.103L271.629 261.503L268.492 257.23L278.774 250.408L291.092 264.565Z" fill="#2F2E41"/>
<path d="M209.131 127.914L245.583 122.162L238.334 100.069H209.131V127.914Z" fill="#FFB6B6"/>
<path d="M243.221 111.196C243.221 111.196 257.79 123.949 251.068 160.303L242.861 195.925L265.221 235.253L253.851 241.536L226.297 202.737L213.689 172.773L207.019 120.258L243.221 111.196Z" fill="#2F2E41"/>
<path d="M220.638 181.312L219.762 195.061L222.327 235.777L235.063 240.219L237.475 198.502L220.638 181.312Z" fill="#2F2E41"/>
<path d="M216.723 37.6423L230.813 38.1992L236.429 47.6431L249.241 50.177L241.592 89.3781L242.999 111.691L230.241 111.612C221.047 111.555 212.156 114.939 205.273 121.115L205.655 92.1514L200.168 70.5303L201.401 47.8592L211.708 46.5539L216.723 37.6423Z" fill="#E6E6E6"/>
<path d="M224.529 33.0622C231.853 33.0622 237.79 27.0472 237.79 19.6272C237.79 12.2072 231.853 6.19211 224.529 6.19211C217.205 6.19211 211.268 12.2072 211.268 19.6272C211.268 27.0472 217.205 33.0622 224.529 33.0622Z" fill="#FFB6B6"/>
<path d="M215.523 5.93199C217.847 4.49676 220.509 3.72038 223.23 3.68403C225.951 3.64768 228.632 4.35271 230.993 5.72537C233.353 7.09804 235.306 9.08794 236.647 11.487C237.989 13.8861 238.669 16.6062 238.618 19.3629C231.861 21.0817 224.762 22.397 217.556 19.774L215.854 15.5544L214.851 19.7772C212.656 20.6859 210.456 21.4548 208.256 19.7684C208.166 17.0194 208.79 14.2947 210.065 11.8666C211.341 9.43854 213.223 7.39214 215.523 5.93199Z" fill="#2F2E41"/>
<path d="M246.788 138.778L248.576 155.214C248.7 155.624 248.951 155.983 249.292 156.238C249.633 156.493 250.045 156.63 250.469 156.63H258.709C259.132 156.63 259.545 156.493 259.885 156.238C260.226 155.983 260.477 155.624 260.602 155.214L262.082 142.616C262.51 142.829 262.981 142.935 263.457 142.927C263.933 142.919 264.4 142.796 264.82 142.57C265.24 142.343 265.601 142.019 265.873 141.623C266.145 141.227 266.321 140.772 266.386 140.294C266.45 139.817 266.402 139.33 266.245 138.875C266.088 138.42 265.826 138.009 265.482 137.676C265.138 137.343 264.72 137.098 264.264 136.96C263.808 136.823 263.326 136.797 262.858 136.885C262.673 136.664 262.443 136.486 262.183 136.365C261.924 136.243 261.641 136.181 261.355 136.181H248.681C248.371 136.181 248.066 136.255 247.789 136.396C247.512 136.538 247.272 136.743 247.088 136.996C246.904 137.248 246.781 137.541 246.729 137.85C246.677 138.16 246.697 138.478 246.788 138.778ZM262.341 141.764L263.248 138.778C263.353 138.433 263.363 138.066 263.278 137.716C263.317 137.714 263.353 137.704 263.392 137.704C263.962 137.704 264.508 137.933 264.911 138.341C265.313 138.749 265.54 139.302 265.54 139.879C265.54 140.456 265.313 141.01 264.911 141.418C264.508 141.826 263.962 142.055 263.392 142.055C263.023 142.052 262.661 141.952 262.341 141.764Z" fill="#99F2C8"/>
<path d="M259.214 156.641C258.694 156.112 258.295 155.473 258.045 154.77C257.794 154.068 257.7 153.318 257.766 152.574C257.833 151.83 258.06 151.11 258.432 150.464C258.803 149.819 259.309 149.264 259.915 148.838L251.884 108.425L260.753 111.31L267.181 150.399C267.82 151.478 268.045 152.756 267.816 153.993C267.586 155.229 266.916 156.336 265.934 157.106C264.952 157.875 263.726 158.253 262.487 158.167C261.248 158.082 260.084 157.539 259.214 156.641Z" fill="#FFB6B6"/>
<path d="M243.738 54.3852L249.241 50.1771C249.241 50.1771 254.095 49.8288 254.955 58.6975C255.814 67.5662 261.197 101.604 261.197 101.604L269.617 141.114L257.962 143.706L248.943 101.068L239.915 71.6515L243.738 54.3852Z" fill="#E6E6E6"/>
<path d="M196.248 91.1728C197.968 91.1728 199.362 89.7599 199.362 88.017C199.362 86.2742 197.968 84.8613 196.248 84.8613C194.527 84.8613 193.133 86.2742 193.133 88.017C193.133 89.7599 194.527 91.1728 196.248 91.1728Z" fill="#99F2C8"/>
<path d="M96.921 302.625L103.412 302.625L106.501 277.258L96.9199 277.259L96.921 302.625Z" fill="#FFB6B6"/>
<path d="M95.2653 300.478L97.0924 300.478L104.226 297.539L108.049 300.477H108.05C110.21 300.478 112.282 301.347 113.81 302.895C115.338 304.443 116.196 306.542 116.196 308.731V308.999L95.2657 309L95.2653 300.478Z" fill="#2F2E41"/>
<path d="M122.076 298.481L128.408 299.929L136.936 275.875L127.59 273.737L122.076 298.481Z" fill="#FFB6B6"/>
<path d="M120.928 296.017L122.71 296.425L130.307 295.15L133.398 298.869L133.398 298.869C135.506 299.352 137.338 300.662 138.492 302.513C139.645 304.364 140.026 306.603 139.551 308.738L139.492 309L119.075 304.33L120.928 296.017Z" fill="#2F2E41"/>
<path d="M85.0374 172.144L90.9073 238.773C90.9073 238.773 88.7079 278.774 95.805 292.85H106.098L111.194 235.12L111.834 196.371L133.9 229.062L119.845 291.906L132.513 293.054L155.321 224.853L130.264 160.829L85.0374 172.144Z" fill="#2F2E41"/>
<path d="M91.185 66.0384C99.5456 66.0384 106.323 59.1719 106.323 50.7016C106.323 42.2312 99.5456 35.3647 91.185 35.3647C82.8244 35.3647 76.0468 42.2312 76.0468 50.7016C76.0468 59.1719 82.8244 66.0384 91.185 66.0384Z" fill="#FFB8B8"/>
<path d="M117.797 80.6537L105.378 75.255L99.3319 68.7583L84.2287 71.2261L80.2215 78.1871L67.2495 90.4073L82.4477 160.028L81.9876 175.234C81.9876 175.234 91.7148 179.67 133.9 169.455C134.406 169.333 133.347 168.797 133.347 168.797L117.797 80.6537Z" fill="#3F3D56"/>
<path d="M106.244 39.4833C105.232 37.25 103.427 35.4841 101.189 34.5366C98.9712 33.6302 96.4921 33.6324 94.2754 34.5427C92.2741 33.2617 90.0505 32.2462 87.7087 32.1204C85.3668 31.9946 82.8909 32.8748 81.4477 34.8123C81.1254 35.3238 80.7594 35.8055 80.3539 36.252C79.1938 37.3404 77.4309 37.1834 75.889 36.9609C76.5805 37.5614 77.2723 38.1619 77.9642 38.7624C77.1271 38.9839 76.2899 39.2055 75.4525 39.4271C76.4296 40.0274 77.4065 40.6277 78.3833 41.228C75.5472 42.9526 74.2581 46.7169 74.5986 50.1356C74.9208 53.3723 76.4632 56.3321 78.307 58.9628C79.0426 57.3903 78.8841 55.5086 78.8719 53.7375C78.8593 51.8662 79.1861 49.7411 80.6662 48.6953C81.6646 47.9898 82.9485 47.9583 84.1525 47.9649C90.2257 47.9987 96.2921 48.3824 102.322 49.1142C103.141 49.15 103.938 49.3845 104.649 49.7977C105.982 50.7194 106.242 52.6215 106.376 54.2902C107.08 51.5349 107.425 48.6979 107.402 45.8518C107.461 43.6701 107.066 41.5003 106.244 39.4833Z" fill="#2F2E41"/>
<path d="M110.957 218.851C124.116 218.851 134.783 208.044 134.783 194.712C134.783 181.38 124.116 170.573 110.957 170.573C97.7977 170.573 87.1301 181.38 87.1301 194.712C87.1301 208.044 97.7977 218.851 110.957 218.851Z" fill="white"/>
<path d="M110.957 170.037C109.732 170.037 108.509 170.13 107.298 170.316C106.678 170.407 106.075 170.525 105.476 170.67C101.081 171.696 97.0533 173.94 93.843 177.15C90.6326 180.361 88.3659 184.412 87.2957 188.851C86.2255 193.291 86.3938 197.944 87.7819 202.292C89.1701 206.641 91.7234 210.513 95.1571 213.476C95.5648 213.825 95.9777 214.163 96.4066 214.485C99.4977 216.82 103.092 218.378 106.893 219.03C110.695 219.683 114.595 219.412 118.273 218.239C121.951 217.066 125.301 215.025 128.048 212.284C130.796 209.543 132.861 206.18 134.075 202.473C135.289 198.765 135.616 194.818 135.03 190.957C134.444 187.096 132.961 183.431 130.704 180.264C128.447 177.097 125.479 174.519 122.046 172.741C118.613 170.962 114.812 170.036 110.957 170.037V170.037ZM110.957 218.315C106.003 218.32 101.178 216.717 97.1902 213.739C96.7561 213.417 96.3378 213.085 95.9301 212.731C92.5848 209.872 90.1025 206.115 88.7681 201.892C87.4337 197.669 87.3012 193.151 88.3857 188.855C89.4702 184.559 91.7278 180.66 94.8997 177.605C98.0715 174.55 102.029 172.462 106.319 171.581C106.911 171.458 107.504 171.361 108.108 171.286C109.053 171.168 110.004 171.109 110.957 171.109C117.135 171.109 123.061 173.596 127.43 178.022C131.799 182.449 134.254 188.452 134.254 194.712C134.254 200.972 131.799 206.975 127.43 211.402C123.061 215.828 117.135 218.315 110.957 218.315Z" fill="#3F3D56"/>
<path d="M99.27 189.884H122.643C123.499 189.884 124.194 189.181 124.194 188.314V188.236C124.194 187.369 123.499 186.666 122.643 186.666H99.27C98.4137 186.666 97.7196 187.369 97.7196 188.236V188.314C97.7196 189.181 98.4137 189.884 99.27 189.884Z" fill="#99F2C8"/>
<path d="M99.27 196.321H122.643C123.499 196.321 124.194 195.618 124.194 194.751V194.674C124.194 193.806 123.499 193.103 122.643 193.103H99.27C98.4137 193.103 97.7196 193.806 97.7196 194.674V194.751C97.7196 195.618 98.4137 196.321 99.27 196.321Z" fill="#99F2C8"/>
<path d="M99.27 202.759H122.643C123.499 202.759 124.194 202.055 124.194 201.188V201.111C124.194 200.243 123.499 199.54 122.643 199.54H99.27C98.4137 199.54 97.7196 200.243 97.7196 201.111V201.188C97.7196 202.055 98.4137 202.759 99.27 202.759Z" fill="#99F2C8"/>
<path d="M377.524 301.806L370.717 301.806L367.479 275.208L377.525 275.208L377.524 301.806Z" fill="#9E616A"/>
<path d="M345.322 301.806L338.516 301.806L335.278 275.208L345.324 275.208L345.322 301.806Z" fill="#9E616A"/>
<path d="M345.562 309L324.631 308.999V308.731C324.631 306.542 325.49 304.443 327.018 302.895C328.545 301.347 330.618 300.478 332.778 300.477H332.779L336.602 297.539L343.735 300.478L345.562 300.478L345.562 309Z" fill="#2F2E41"/>
<path d="M378.637 309L357.706 308.999V308.731C357.706 306.542 358.564 304.443 360.092 302.895C361.62 301.347 363.692 300.478 365.853 300.477H365.853L369.676 297.539L376.81 300.478L378.637 300.478L378.637 309Z" fill="#2F2E41"/>
<path d="M338.646 144.389L328.302 208.203L331.117 217.713L327.423 224.448L332.847 283.595L330.645 288.507L336.798 292.351H349.318L349.982 238.805L353.075 230.943V226.61L359.37 193.958L360.53 239.685L362.361 247.559L360.823 253.165L362.833 257.093L368.172 293.518H382.21L381.124 285.044C382.347 284.417 383.33 283.396 383.917 282.141C384.505 280.886 384.664 279.47 384.37 278.113L383.565 274.399L385.397 263.416L388.733 202.147L387.793 152.71L371.37 139.987L338.646 144.389Z" fill="#2F2E41"/>
<path d="M362.361 62.4432C369.564 62.4432 375.404 56.527 375.404 49.229C375.404 41.931 369.564 36.0148 362.361 36.0148C355.157 36.0148 349.318 41.931 349.318 49.229C349.318 56.527 355.157 62.4432 362.361 62.4432Z" fill="#9E616A"/>
<path d="M333.863 169.712C334.431 169.118 334.863 168.405 335.129 167.623C335.395 166.842 335.489 166.01 335.404 165.188C335.319 164.366 335.056 163.572 334.636 162.864C334.215 162.155 333.646 161.549 332.969 161.087L338.041 141.655L328.269 144.985L324.951 162.927C324.261 164.131 324.03 165.549 324.303 166.914C324.576 168.278 325.334 169.494 326.432 170.33C327.531 171.167 328.894 171.566 330.264 171.452C331.633 171.338 332.914 170.719 333.863 169.712H333.863Z" fill="#9E616A"/>
<path d="M339.201 76.4153L337.103 75.9743L335.315 76.9778C335.315 76.9778 330.318 83.7275 330.318 89.9147C330.318 96.102 324.211 155.725 324.211 155.725L335.315 160.787L344.198 114.101L339.201 76.4153Z" fill="#E6E6E6"/>
<path d="M373.783 39.5406C373.783 39.5406 377.194 32.9335 369.689 32.3329C369.689 32.3329 363.291 26.4527 356.769 31.2579C356.769 31.2579 353.212 31.2579 351.267 35.3361C351.267 35.3361 348.469 34.2611 347.854 37.138C347.854 37.138 345.807 43.1445 347.854 48.5503C349.902 53.9561 350.582 54.5568 350.582 54.5568C350.582 54.5568 347.218 43.2232 355.406 42.6225C363.594 42.0219 372.757 36.8377 373.439 43.4448C374.121 50.0519 375.148 51.6799 375.148 51.6799C375.148 51.6799 381.63 42.2435 373.783 39.5406Z" fill="#2F2E41"/>
<path d="M421.429 224.448C420.444 224.449 419.494 224.082 418.761 223.417L379.288 187.819C378.492 187.1 378.011 186.09 377.949 185.012C377.887 183.934 378.25 182.875 378.958 182.067L404.245 153.288C404.954 152.482 405.95 151.994 407.015 151.932C408.079 151.869 409.124 152.237 409.921 152.954L449.394 188.552C450.191 189.271 450.673 190.28 450.735 191.358C450.797 192.437 450.433 193.496 449.724 194.303L424.437 223.082C424.087 223.483 423.662 223.809 423.187 224.043C422.711 224.276 422.195 224.411 421.667 224.441C421.587 224.446 421.508 224.448 421.429 224.448Z" fill="white"/>
<path d="M421.428 224.71C420.381 224.711 419.369 224.32 418.589 223.612L379.116 188.014C378.269 187.249 377.757 186.175 377.691 185.027C377.625 183.88 378.012 182.753 378.765 181.893L404.051 153.114C404.807 152.256 405.867 151.737 407 151.671C408.132 151.604 409.245 151.995 410.093 152.758L449.566 188.356C450.414 189.121 450.927 190.195 450.993 191.343C451.058 192.491 450.672 193.618 449.917 194.477L424.63 223.257C424.258 223.683 423.805 224.03 423.299 224.279C422.793 224.527 422.244 224.671 421.682 224.703C421.597 224.707 421.513 224.71 421.428 224.71ZM407.25 152.71C406.791 152.709 406.338 152.806 405.92 152.996C405.502 153.186 405.128 153.463 404.824 153.81L379.537 182.59C378.966 183.241 378.673 184.096 378.723 184.967C378.773 185.837 379.161 186.652 379.803 187.232L419.276 222.83C419.594 223.117 419.965 223.338 420.368 223.48C420.771 223.622 421.197 223.682 421.622 223.657C422.048 223.632 422.464 223.522 422.848 223.334C423.232 223.146 423.575 222.883 423.858 222.56L449.145 193.781C449.717 193.129 450.011 192.274 449.961 191.404C449.911 190.533 449.522 189.719 448.879 189.139L409.406 153.54C408.812 153.004 408.045 152.708 407.25 152.71H407.25Z" fill="#3F3D56"/>
<path d="M435.742 197.192C435.316 197.193 434.905 197.034 434.586 196.747L403.602 168.803C403.43 168.65 403.291 168.463 403.19 168.255C403.09 168.046 403.031 167.82 403.018 167.588C403.004 167.357 403.036 167.125 403.111 166.905C403.186 166.686 403.303 166.484 403.455 166.311C403.607 166.138 403.792 165.997 403.998 165.896C404.204 165.795 404.428 165.736 404.656 165.723C404.885 165.71 405.114 165.743 405.33 165.82C405.546 165.896 405.745 166.015 405.916 166.17L436.9 194.114C437.164 194.351 437.35 194.664 437.434 195.012C437.518 195.359 437.495 195.724 437.369 196.058C437.244 196.392 437.021 196.679 436.73 196.882C436.44 197.084 436.095 197.193 435.742 197.192Z" fill="#99F2C8"/>
<path d="M429.832 203.918C429.406 203.919 428.994 203.76 428.676 203.473L397.692 175.53C397.521 175.376 397.382 175.189 397.283 174.981C397.183 174.773 397.125 174.546 397.112 174.315C397.099 174.084 397.13 173.853 397.205 173.634C397.281 173.416 397.397 173.214 397.549 173.041C397.701 172.868 397.885 172.727 398.091 172.627C398.297 172.526 398.52 172.467 398.748 172.454C398.976 172.44 399.204 172.473 399.42 172.549C399.636 172.625 399.835 172.743 400.005 172.897L430.99 200.84C431.254 201.078 431.44 201.391 431.524 201.738C431.607 202.085 431.585 202.45 431.459 202.784C431.334 203.118 431.111 203.405 430.82 203.608C430.53 203.81 430.185 203.919 429.832 203.918H429.832Z" fill="#99F2C8"/>
<path d="M423.922 210.645C423.496 210.646 423.084 210.487 422.766 210.2L391.781 182.257C391.61 182.103 391.471 181.916 391.371 181.708C391.271 181.499 391.213 181.273 391.2 181.042C391.186 180.811 391.218 180.579 391.293 180.36C391.368 180.141 391.485 179.94 391.637 179.767C391.789 179.594 391.973 179.453 392.179 179.352C392.385 179.251 392.609 179.192 392.837 179.179C393.065 179.166 393.294 179.198 393.51 179.274C393.726 179.351 393.925 179.469 394.095 179.623L425.08 207.567C425.343 207.804 425.529 208.118 425.613 208.465C425.697 208.812 425.675 209.177 425.549 209.511C425.424 209.845 425.201 210.132 424.91 210.335C424.62 210.537 424.275 210.646 423.922 210.645H423.922Z" fill="#99F2C8"/>
<path d="M388.489 170.859C388.091 170.137 387.855 169.335 387.796 168.511C387.737 167.686 387.858 166.858 388.149 166.086C388.44 165.313 388.895 164.615 389.481 164.04C390.068 163.465 390.772 163.027 391.543 162.757L391.577 142.657L400.174 148.422L398.824 166.625C399.185 167.969 399.048 169.399 398.438 170.647C397.827 171.894 396.786 172.871 395.513 173.393C394.239 173.915 392.82 173.945 391.525 173.478C390.231 173.011 389.15 172.079 388.489 170.859H388.489Z" fill="#9E616A"/>
<path d="M389.283 81.9233L393.124 78.1727L395.946 80.2359C395.946 80.2359 398.722 83.6107 400.942 93.7353C403.163 103.86 400.942 159.545 400.942 159.545L388.728 157.858L390.394 128.609L385.397 103.86L389.283 81.9233Z" fill="#E6E6E6"/>
<path d="M394.955 79.0876L382.015 72.8254L373.229 64.5698L357.209 64.4483L352.041 71.2547L338.398 75.95L340.672 123.611L339.121 127.276C339.121 127.276 340.201 128.265 340.695 128.818C341.188 129.371 340.013 133.999 340.013 133.999L339.35 139.035L341.188 140.366L338.799 143.225L338.206 147.733C338.206 147.733 379.918 137.229 387.8 154.63C388.216 155.549 387.191 146.564 387.191 146.564L386.165 139.987L387.183 134.083L388.733 132.512L386.133 129.878L387.8 117.378L394.955 79.0876Z" fill="#3F3D56"/>
<path d="M101.502 184.749C101.823 183.923 101.962 183.036 101.908 182.15C101.854 181.263 101.609 180.4 101.19 179.62C100.771 178.84 100.188 178.163 99.4828 177.636C98.7775 177.109 97.9668 176.745 97.1076 176.57L94.2331 155.186L85.8987 162.567L89.9061 181.742C89.7112 183.224 90.0596 184.726 90.8853 185.965C91.7109 187.204 92.9564 188.093 94.3858 188.464C95.8151 188.835 97.3291 188.661 98.6407 187.977C99.9523 187.292 100.97 186.144 101.502 184.749V184.749Z" fill="#FFB8B8"/>
<path d="M68.8489 90.0162L66.5898 90.4546L65.2243 92.1963C65.2243 92.1963 63.0153 100.975 65.5317 107.109C68.0482 113.244 86.2426 174.91 86.2426 174.91L99.3111 175.294L89.1308 125.296L68.8489 90.0162Z" fill="#3F3D56"/>
<path d="M120.369 181.612C119.767 180.967 119.311 180.196 119.035 179.353C118.759 178.511 118.669 177.617 118.771 176.735C118.873 175.853 119.164 175.005 119.624 174.249C120.085 173.494 120.703 172.85 121.436 172.363L116.233 151.435L126.683 155.135L130.022 174.442C130.748 175.743 130.978 177.269 130.667 178.73C130.357 180.192 129.529 181.487 128.339 182.371C127.149 183.255 125.68 183.666 124.211 183.526C122.742 183.386 121.375 182.705 120.369 181.612Z" fill="#FFB8B8"/>
<path d="M115.803 81.3759L118.06 80.9293L119.968 82.0296C119.968 82.0296 125.249 89.3405 125.171 95.9834C125.094 102.626 130.907 166.718 130.907 166.718L118.922 172.011L109.967 121.773L115.803 81.3759Z" fill="#3F3D56"/>
</svg>
