<svg width="387" height="229" viewBox="0 0 387 229" fill="none" xmlns="http://www.w3.org/2000/svg">
<g clip-path="url(#clip0_2_7)">
<path d="M24.3442 48C19.5293 48 14.8226 46.5924 10.8193 43.9553C6.81588 41.3181 3.69563 37.5698 1.85307 33.1844C0.0105175 28.799 -0.471579 23.9734 0.467747 19.3178C1.40707 14.6623 3.72564 10.3859 7.13023 7.02942C10.5348 3.67296 14.8726 1.38718 19.5949 0.461134C24.3172 -0.464912 29.212 0.0103683 33.6603 1.82687C38.1086 3.64338 41.9107 6.71952 44.5856 10.6663C47.2606 14.6131 48.6884 19.2532 48.6884 24C48.6811 30.363 46.1139 36.4633 41.55 40.9626C36.9862 45.4619 30.7984 47.9928 24.3442 48ZM24.3442 0.999983C19.73 0.999983 15.2194 2.34891 11.3828 4.87618C7.54623 7.40345 4.55598 10.9956 2.7902 15.1983C1.02442 19.401 0.562415 24.0255 1.4626 28.4871C2.36279 32.9486 4.58474 37.0468 7.84748 40.2634C11.1102 43.4801 15.2672 45.6706 19.7927 46.558C24.3183 47.4455 29.0091 46.99 33.2721 45.2492C37.5351 43.5084 41.1787 40.5604 43.7422 36.7781C46.3058 32.9958 47.674 28.549 47.674 24C47.667 17.9021 45.2068 12.056 40.8331 7.74416C36.4594 3.43232 30.5295 1.00689 24.3442 0.999983Z" fill="#F2F2F2"/>
<path d="M189.682 34C187.274 34 184.921 33.2962 182.919 31.9776C180.918 30.659 179.357 28.7849 178.436 26.5922C177.515 24.3995 177.274 21.9867 177.744 19.6589C178.213 17.3311 179.373 15.1929 181.075 13.5147C182.777 11.8365 184.946 10.6936 187.307 10.2306C189.668 9.76755 192.116 10.0052 194.34 10.9134C196.564 11.8217 198.465 13.3598 199.803 15.3332C201.14 17.3065 201.854 19.6266 201.854 22C201.85 25.1815 200.567 28.2316 198.285 30.4813C196.003 32.7309 192.909 33.9964 189.682 34ZM189.682 11C187.475 11 185.318 11.6451 183.483 12.8538C181.648 14.0625 180.218 15.7805 179.373 17.7905C178.529 19.8005 178.308 22.0122 178.738 24.146C179.169 26.2798 180.232 28.2398 181.792 29.7782C183.352 31.3165 185.341 32.3642 187.505 32.7886C189.669 33.2131 191.913 32.9952 193.952 32.1627C195.99 31.3301 197.733 29.9202 198.959 28.1113C200.185 26.3023 200.84 24.1756 200.84 22C200.836 19.0836 199.66 16.2876 197.568 14.2255C195.476 12.1633 192.64 11.0033 189.682 11Z" fill="#F2F2F2"/>
<path d="M275.394 92.5C272.685 92.5 270.038 91.7082 267.786 90.2248C265.534 88.7414 263.779 86.633 262.742 84.1662C261.706 81.6994 261.435 78.985 261.963 76.3663C262.492 73.7475 263.796 71.3421 265.711 69.4541C267.626 67.5661 270.066 66.2803 272.722 65.7594C275.378 65.2385 278.132 65.5059 280.634 66.5276C283.136 67.5494 285.275 69.2797 286.779 71.4998C288.284 73.7199 289.087 76.33 289.087 79C289.083 82.5792 287.639 86.0106 285.072 88.5415C282.505 91.0723 279.024 92.4959 275.394 92.5ZM275.394 66.5C272.886 66.5 270.434 67.2331 268.349 68.6066C266.264 69.9801 264.639 71.9324 263.679 74.2165C262.72 76.5005 262.469 79.0139 262.958 81.4386C263.447 83.8634 264.655 86.0907 266.428 87.8388C268.201 89.587 270.46 90.7775 272.92 91.2598C275.38 91.7421 277.929 91.4946 280.246 90.5485C282.563 89.6024 284.543 88.0002 285.936 85.9446C287.329 83.889 288.073 81.4723 288.073 79C288.069 75.6859 286.732 72.5087 284.355 70.1653C281.978 67.8219 278.755 66.5037 275.394 66.5Z" fill="#F2F2F2"/>
<path d="M386.493 229H272.379C272.245 229 272.116 228.947 272.021 228.854C271.926 228.76 271.872 228.633 271.872 228.5C271.872 228.367 271.926 228.24 272.021 228.146C272.116 228.053 272.245 228 272.379 228H386.493C386.627 228 386.756 228.053 386.851 228.146C386.947 228.24 387 228.367 387 228.5C387 228.633 386.947 228.76 386.851 228.854C386.756 228.947 386.627 229 386.493 229Z" fill="#CCCCCC"/>
<path d="M325.054 76.6234C331.934 76.6234 337.511 71.1253 337.511 64.3429C337.511 57.5606 331.934 52.0624 325.054 52.0624C318.175 52.0624 312.598 57.5606 312.598 64.3429C312.598 71.1253 318.175 76.6234 325.054 76.6234Z" fill="#FFB8B8"/>
<path d="M326.346 210.171L320.459 212.143L309.944 190.693L318.633 187.783L326.346 210.171Z" fill="#FFB8B8"/>
<path d="M315.683 211.893L327.037 208.09L329.465 215.138L310.962 221.334C310.643 220.409 310.512 219.43 310.577 218.455C310.641 217.48 310.9 216.526 311.339 215.65C311.777 214.773 312.386 213.99 313.132 213.345C313.877 212.7 314.744 212.207 315.683 211.893Z" fill="#2F2E41"/>
<path d="M339.649 222.288L333.439 222.595L329.28 199.128L338.446 198.673L339.649 222.288Z" fill="#FFB8B8"/>
<path d="M328.914 221.066L340.891 220.472L341.27 227.906L321.753 228.873C321.703 227.897 321.849 226.921 322.182 226C322.515 225.079 323.028 224.232 323.693 223.507C324.358 222.782 325.162 222.193 326.057 221.774C326.953 221.356 327.924 221.115 328.914 221.066Z" fill="#2F2E41"/>
<path d="M302.694 144.315C303.251 143.826 303.692 143.223 303.987 142.548C304.282 141.873 304.423 141.142 304.4 140.407C304.378 139.673 304.192 138.952 303.856 138.295C303.52 137.639 303.043 137.063 302.457 136.609L308.378 119.722L299.253 122.021L295.029 137.705C294.32 138.725 294.015 139.968 294.172 141.195C294.33 142.423 294.939 143.551 295.883 144.366C296.828 145.181 298.043 145.626 299.299 145.616C300.554 145.607 301.762 145.144 302.694 144.315Z" fill="#FFB8B8"/>
<path d="M339.069 215.212C338.989 215.212 338.908 215.208 338.828 215.199L330.399 214.319C329.881 214.268 329.397 214.042 329.028 213.68C328.658 213.319 328.427 212.843 328.371 212.333L321.857 155.078L317.143 170.745L325.931 201.537C326.021 201.85 326.04 202.179 325.988 202.501C325.936 202.823 325.814 203.129 325.63 203.4C325.445 203.67 325.204 203.898 324.922 204.068C324.64 204.237 324.323 204.344 323.995 204.381L315.45 205.35C314.906 205.409 314.359 205.274 313.906 204.97C313.454 204.666 313.127 204.213 312.984 203.692L303.648 169.041C303.571 168.756 303.551 168.459 303.591 168.167L307.787 137.067L339.087 139.542L341.35 212.893C341.359 213.194 341.307 213.494 341.197 213.775C341.086 214.056 340.92 214.312 340.707 214.528C340.494 214.745 340.24 214.917 339.958 215.034C339.677 215.151 339.374 215.212 339.069 215.212V215.212Z" fill="#2F2E41"/>
<path d="M328.249 144.859C317.763 144.859 305.891 140.865 305.172 140.62L304.964 140.549L316.794 80.7065L317.011 80.7153C321.699 80.9028 334.493 80.999 334.622 81L334.851 81.0017L339.783 133.811L340.664 141.535L340.556 141.622C337.539 144.026 333.039 144.859 328.249 144.859Z" fill="#1F4037"/>
<path d="M309.305 139.688L301.906 136.749L305.677 91.7776C305.768 90.6689 306.11 89.5944 306.678 88.6335C307.247 87.6726 308.027 86.8498 308.961 86.2258L312.854 83.6135C312.744 83.2442 312.724 82.8543 312.797 82.476C312.869 82.0977 313.031 81.7417 313.27 81.4372C313.509 81.1327 313.818 80.8884 314.171 80.7244C314.525 80.5604 314.912 80.4813 315.303 80.4937L316.418 80.5291C316.63 80.3882 316.88 80.3137 317.135 80.3155C317.391 80.3173 317.64 80.3953 317.85 80.5391C318.06 80.683 318.221 80.8861 318.312 81.1217C318.402 81.3573 318.419 81.6144 318.359 81.8594L318.114 86.624L309.305 139.688Z" fill="#2F2E41"/>
<path d="M305.572 131.625L295.911 131.224L299.04 111.378L301.634 92.7039C301.685 92.0333 301.889 91.3827 302.23 90.8009C302.572 90.219 303.043 89.7208 303.608 89.3436C304.173 88.9663 304.816 88.7198 305.491 88.6224C306.166 88.525 306.855 88.5792 307.505 88.781C308.519 89.0945 309.388 89.7496 309.96 90.6316C310.533 91.5135 310.772 92.566 310.637 93.6045L308.01 113.838L305.572 131.625Z" fill="#2F2E41"/>
<path d="M320.869 140.376L320.803 140.175C320.758 140.038 316.405 126.269 323.69 109.839L327.343 91.9263L330.465 80.6788C330.523 80.4778 330.629 80.293 330.772 80.1391C330.916 79.9852 331.094 79.8665 331.292 79.7923C331.525 79.7128 331.777 79.7027 332.016 79.7632C332.255 79.8237 332.47 79.9522 332.636 80.1326C334.812 79.5029 337.151 79.7335 339.157 80.7755L343.542 83.0525C344.517 83.5588 345.294 84.3696 345.751 85.358C346.208 86.3463 346.32 87.4563 346.068 88.514L340.076 113.725L342.989 137.274L320.869 140.376Z" fill="#2F2E41"/>
<path d="M327.249 130.669C327.99 130.748 328.74 130.666 329.446 130.429C330.152 130.192 330.796 129.805 331.334 129.296C331.871 128.786 332.289 128.167 332.557 127.481C332.826 126.796 332.939 126.06 332.888 125.327L346.458 115.417L341.714 113.199L327.082 120.63C325.838 120.796 324.699 121.407 323.881 122.345C323.063 123.284 322.622 124.486 322.643 125.723C322.663 126.96 323.144 128.147 323.993 129.059C324.842 129.97 326 130.543 327.249 130.669V130.669Z" fill="#FFB8B8"/>
<path d="M335.757 126.233L331.173 117.798L342.477 110.464L336.961 90.9592C336.74 90.1783 336.685 89.3608 336.799 88.5579C336.912 87.755 337.193 86.9839 337.623 86.2927C338.053 85.6015 338.622 85.005 339.296 84.5406C339.97 84.0762 340.734 83.7538 341.541 83.5935C342.965 83.3136 344.444 83.5528 345.703 84.2668C346.963 84.9807 347.916 86.1209 348.387 87.4756L355.83 109.043C355.983 109.488 355.992 109.968 355.854 110.418C355.717 110.867 355.44 111.263 355.063 111.55L335.757 126.233Z" fill="#2F2E41"/>
<path d="M325.936 66.9477C324.442 67.1392 323.316 65.633 322.794 64.2407C322.271 62.8483 321.873 61.2274 320.575 60.4753C318.801 59.4478 316.532 60.6836 314.503 60.3446C312.213 59.9617 310.724 57.5685 310.607 55.2809C310.49 52.9933 311.413 50.7932 312.32 48.6841L312.636 51.3052C312.594 50.4169 312.783 49.5326 313.187 48.7372C313.59 47.9417 314.194 47.2616 314.94 46.7618L314.532 50.608C314.619 50.0773 314.811 49.5688 315.098 49.1116C315.384 48.6544 315.76 48.2575 316.202 47.9436C316.645 47.6298 317.146 47.4052 317.677 47.2828C318.208 47.1603 318.758 47.1425 319.296 47.2302L319.232 49.5218C321.877 49.2117 324.546 48.9011 327.199 49.1374C329.853 49.3737 332.525 50.2014 334.536 51.9242C337.544 54.5012 338.643 58.7447 338.274 62.6568C337.905 66.569 336.267 70.2442 334.56 73.7944C334.131 74.6877 333.536 75.6957 332.54 75.8094C331.645 75.9117 330.826 75.1741 330.548 74.3293C330.334 73.4625 330.342 72.5567 330.572 71.6938C330.824 70.3752 331.141 69.0273 330.905 67.706C330.668 66.3846 329.704 65.0789 328.353 64.917C327.002 64.755 325.619 66.2776 326.269 67.4567L325.936 66.9477Z" fill="#2F2E41"/>
<path d="M162.959 201.789L158.11 199.776L154.784 175.812H110.487L106.882 199.678L102.544 201.816C102.336 201.919 102.17 202.087 102.071 202.294C101.973 202.501 101.949 202.735 102.002 202.958C102.055 203.181 102.183 203.379 102.365 203.521C102.547 203.663 102.772 203.74 103.005 203.74H162.559C162.797 203.74 163.028 203.659 163.212 203.511C163.396 203.362 163.522 203.155 163.569 202.926C163.616 202.696 163.581 202.457 163.47 202.25C163.359 202.042 163.178 201.88 162.959 201.789Z" fill="#E6E6E6"/>
<path d="M241.676 179H24.081C22.9393 178.997 21.8453 178.549 21.0389 177.752C20.2325 176.955 19.7797 175.876 19.7797 174.75V144.5H245.978V174.75C245.978 175.876 245.525 176.955 244.718 177.752C243.912 178.549 242.818 178.997 241.676 179Z" fill="#CCCCCC"/>
<path d="M246.205 158.797H19.5811V29.3635C19.5826 28.0052 20.1307 26.7029 21.105 25.7425C22.0793 24.782 23.4002 24.2417 24.778 24.2402H241.008C242.386 24.2418 243.707 24.782 244.681 25.7425C245.656 26.703 246.204 28.0052 246.205 29.3635V158.797Z" fill="#3F3D56"/>
<path d="M232.67 149.403H33.1164C32.0542 149.401 31.0358 148.985 30.2847 148.244C29.5336 147.504 29.1111 146.5 29.1099 145.453V37.5842C29.1111 36.537 29.5336 35.533 30.2847 34.7925C31.0358 34.052 32.0542 33.6355 33.1164 33.6343H232.67C233.732 33.6355 234.75 34.052 235.501 34.7925C236.253 35.533 236.675 36.537 236.676 37.5842V145.453C236.675 146.5 236.253 147.504 235.501 148.244C234.75 148.985 233.732 149.401 232.67 149.403Z" fill="white"/>
<path d="M230.791 203.99H37.5595C37.425 203.99 37.296 203.937 37.2009 203.844C37.1058 203.75 37.0523 203.623 37.0523 203.49C37.0523 203.358 37.1058 203.23 37.2009 203.137C37.296 203.043 37.425 202.99 37.5595 202.99H230.791C230.926 202.99 231.055 203.043 231.15 203.137C231.245 203.23 231.299 203.358 231.299 203.49C231.299 203.623 231.245 203.75 231.15 203.844C231.055 203.937 230.926 203.99 230.791 203.99Z" fill="#CCCCCC"/>
<path d="M213.923 136H51.8636C51.7291 136 51.6001 135.947 51.505 135.854C51.4099 135.76 51.3564 135.633 51.3564 135.5V58.9233C51.3564 58.7907 51.4099 58.6636 51.505 58.5698C51.6001 58.476 51.7291 58.4233 51.8636 58.4233C51.9981 58.4233 52.1271 58.476 52.2222 58.5698C52.3173 58.6636 52.3708 58.7907 52.3708 58.9233V135H213.923C214.057 135 214.186 135.053 214.281 135.146C214.376 135.24 214.43 135.367 214.43 135.5C214.43 135.633 214.376 135.76 214.281 135.854C214.186 135.947 214.057 136 213.923 136Z" fill="#3F3D56"/>
<path d="M86.4885 130.5H71.7486C71.3495 130.5 70.9668 130.343 70.6846 130.065C70.4024 129.787 70.2436 129.409 70.2431 129.016V108.984C70.2436 108.591 70.4024 108.213 70.6846 107.935C70.9668 107.657 71.3495 107.5 71.7486 107.5H86.4885C86.8877 107.5 87.2703 107.657 87.5526 107.935C87.8348 108.213 87.9936 108.591 87.9941 108.984V129.016C87.9936 129.409 87.8348 129.787 87.5526 130.065C87.2703 130.343 86.8877 130.5 86.4885 130.5Z" fill="#1F4037"/>
<path d="M113.369 130.5H98.6287C98.2295 130.5 97.8469 130.343 97.5646 130.065C97.2824 129.787 97.1236 129.409 97.1231 129.016V89.9841C97.1236 89.5906 97.2824 89.2134 97.5646 88.9352C97.8469 88.6569 98.2295 88.5004 98.6287 88.5H113.369C113.768 88.5004 114.15 88.6569 114.433 88.9352C114.715 89.2134 114.874 89.5906 114.874 89.9841V129.016C114.874 129.409 114.715 129.787 114.433 130.065C114.15 130.343 113.768 130.5 113.369 130.5Z" fill="#1F4037"/>
<path d="M140.249 130.5H125.509C125.11 130.5 124.727 130.343 124.445 130.065C124.162 129.787 124.004 129.409 124.003 129.016V108.984C124.004 108.591 124.162 108.213 124.445 107.935C124.727 107.657 125.11 107.5 125.509 107.5H140.249C140.648 107.5 141.03 107.657 141.313 107.935C141.595 108.213 141.754 108.591 141.754 108.984V129.016C141.754 129.409 141.595 129.787 141.313 130.065C141.03 130.343 140.648 130.5 140.249 130.5Z" fill="#1F4037"/>
<path d="M167.129 130.5H152.389C151.999 130.508 151.621 130.364 151.339 130.098C151.057 129.833 150.893 129.468 150.883 129.083V82.4169C150.893 82.0324 151.057 81.6674 151.339 81.4018C151.621 81.1362 151.999 80.9917 152.389 81H167.129C167.519 80.9917 167.896 81.1362 168.178 81.4018C168.461 81.6674 168.624 82.0324 168.634 82.4169V129.083C168.624 129.468 168.461 129.833 168.178 130.098C167.896 130.364 167.519 130.508 167.129 130.5Z" fill="#1F4037"/>
<path d="M194.009 130.5H179.269C178.87 130.5 178.487 130.343 178.205 130.065C177.922 129.787 177.764 129.409 177.763 129.016V68.9841C177.764 68.5906 177.922 68.2134 178.205 67.9352C178.487 67.6569 178.87 67.5004 179.269 67.5H194.009C194.408 67.5004 194.79 67.6569 195.073 67.9352C195.355 68.2134 195.514 68.5906 195.514 68.9841V129.016C195.514 129.409 195.355 129.787 195.073 130.065C194.79 130.343 194.408 130.5 194.009 130.5Z" fill="#1F4037"/>
<path d="M79.1186 101.5C80.7992 101.5 82.1616 100.157 82.1616 98.5C82.1616 96.8431 80.7992 95.5 79.1186 95.5C77.438 95.5 76.0756 96.8431 76.0756 98.5C76.0756 100.157 77.438 101.5 79.1186 101.5Z" fill="#3F3D56"/>
<path d="M105.999 82C107.679 82 109.042 80.6569 109.042 79C109.042 77.3431 107.679 76 105.999 76C104.318 76 102.956 77.3431 102.956 79C102.956 80.6569 104.318 82 105.999 82Z" fill="#3F3D56"/>
<path d="M132.879 101.5C134.559 101.5 135.922 100.157 135.922 98.5C135.922 96.8431 134.559 95.5 132.879 95.5C131.198 95.5 129.836 96.8431 129.836 98.5C129.836 100.157 131.198 101.5 132.879 101.5Z" fill="#3F3D56"/>
<path d="M159.759 72.5C161.439 72.5 162.802 71.1569 162.802 69.5C162.802 67.8431 161.439 66.5 159.759 66.5C158.078 66.5 156.716 67.8431 156.716 69.5C156.716 71.1569 158.078 72.5 159.759 72.5Z" fill="#3F3D56"/>
<path d="M186.639 61.5C188.319 61.5 189.682 60.1569 189.682 58.5C189.682 56.8431 188.319 55.5 186.639 55.5C184.958 55.5 183.596 56.8431 183.596 58.5C183.596 60.1569 184.958 61.5 186.639 61.5Z" fill="#3F3D56"/>
<path d="M132.943 99.172L105.999 79.276L79.4229 98.9L78.8143 98.1L105.999 78.0265L132.815 97.828L159.462 69.079L159.569 69.036L186.449 58.359L186.828 59.2865L160.055 69.921L132.943 99.172Z" fill="#3F3D56"/>
</g>
<defs>
<clipPath id="clip0_2_7">
<rect width="387" height="229" fill="white"/>
</clipPath>
</defs>
</svg>
