<svg width="430" height="423" viewBox="0 0 430 423" fill="none" xmlns="http://www.w3.org/2000/svg">
<path d="M2.4087 96.7773C1.5667 97.0359 0.853002 97.6485 0.424186 98.4807C-0.00462887 99.313 -0.113556 100.297 0.121305 101.217L55.2749 316.257C55.5117 317.176 56.0728 317.955 56.8352 318.423C57.5975 318.891 58.4988 319.01 59.3414 318.754L262.665 256.599C263.507 256.34 264.221 255.728 264.65 254.895C265.079 254.063 265.188 253.079 264.953 252.159L209.799 37.1195C209.562 36.2003 209.001 35.4211 208.239 34.953C207.477 34.4848 206.575 34.3659 205.733 34.6223L2.4087 96.7773Z" fill="#E6E6E6"/>
<path d="M61.8966 308.6L255.652 249.37L203.177 44.7767L9.42236 104.007L61.8966 308.6Z" fill="white"/>
<path d="M35.0393 131.326C33.7466 131.721 33.2136 134.065 33.8512 136.551C34.4889 139.037 36.0595 140.738 37.3522 140.343L125.721 113.33C127.014 112.934 127.547 110.59 126.909 108.104C126.271 105.618 124.701 103.917 123.408 104.312L35.0393 131.326Z" fill="#E6E6E6"/>
<path d="M42.1558 159.072C40.8631 159.468 40.3302 161.812 40.9678 164.298C41.6055 166.784 43.176 168.485 44.4687 168.09L132.838 141.076C134.13 140.681 134.663 138.337 134.026 135.851C133.388 133.365 131.817 131.664 130.525 132.059L42.1558 159.072Z" fill="#E6E6E6"/>
<path d="M49.1904 186.5C47.8977 186.895 47.3647 189.239 48.0024 191.725C48.64 194.211 50.2106 195.913 51.5033 195.517L139.872 168.504C141.165 168.108 141.698 165.764 141.06 163.278C140.422 160.792 138.852 159.091 137.559 159.486L49.1904 186.5Z" fill="#E6E6E6"/>
<path d="M56.3069 214.246C55.0142 214.642 54.4812 216.986 55.1188 219.472C55.7565 221.958 57.327 223.659 58.6197 223.264L146.989 196.25C148.281 195.855 148.814 193.511 148.177 191.025C147.539 188.539 145.968 186.838 144.676 187.233L56.3069 214.246Z" fill="#E6E6E6"/>
<path d="M168.254 90.9225C167.711 91.0877 167.204 91.3682 166.76 91.7478C166.316 92.1275 165.946 92.5988 165.669 93.135C165.392 93.6711 165.215 94.2615 165.148 94.8725C165.08 95.4834 165.124 96.1028 165.276 96.6954C165.428 97.2879 165.685 97.842 166.034 98.3258C166.382 98.8096 166.814 99.2138 167.305 99.5152C167.797 99.8165 168.338 100.009 168.898 100.082C169.457 100.155 170.025 100.107 170.567 99.9403L187.087 94.8902C188.183 94.5553 189.111 93.7592 189.669 92.6768C190.227 91.5945 190.368 90.3146 190.061 89.1188C189.754 87.9229 189.025 86.9091 188.033 86.3003C187.042 85.6915 185.87 85.5376 184.774 85.8724L168.254 90.9225Z" fill="#E6E6E6"/>
<path d="M175.233 118.132C174.69 118.297 174.182 118.577 173.739 118.957C173.295 119.337 172.924 119.808 172.648 120.344C172.371 120.88 172.194 121.471 172.127 122.082C172.059 122.692 172.103 123.312 172.255 123.904C172.407 124.497 172.664 125.051 173.012 125.535C173.36 126.019 173.793 126.423 174.284 126.724C174.776 127.026 175.316 127.218 175.876 127.291C176.436 127.364 177.003 127.316 177.546 127.149L194.066 122.099C195.161 121.764 196.09 120.968 196.648 119.886C197.205 118.804 197.346 117.524 197.039 116.328C196.733 115.132 196.003 114.118 195.012 113.509C194.021 112.901 192.848 112.747 191.753 113.082L175.233 118.132Z" fill="#E6E6E6"/>
<path d="M182.212 145.341C181.669 145.506 181.162 145.787 180.719 146.167C180.276 146.547 179.906 147.018 179.63 147.554C179.354 148.09 179.177 148.68 179.11 149.29C179.043 149.901 179.086 150.52 179.238 151.112C179.39 151.704 179.647 152.258 179.995 152.741C180.343 153.225 180.774 153.629 181.265 153.931C181.756 154.232 182.297 154.425 182.856 154.498C183.415 154.572 183.982 154.524 184.524 154.358L201.044 149.308C202.14 148.973 203.068 148.177 203.626 147.095C204.184 146.013 204.325 144.733 204.018 143.537C203.711 142.341 202.982 141.327 201.991 140.718C200.999 140.11 199.827 139.956 198.732 140.291L182.212 145.341Z" fill="#E6E6E6"/>
<path d="M189.19 172.55C188.096 172.886 187.169 173.682 186.612 174.764C186.055 175.846 185.915 177.125 186.221 178.32C186.528 179.515 187.256 180.528 188.246 181.137C189.237 181.746 190.408 181.901 191.503 181.568L208.023 176.517C209.117 176.181 210.045 175.385 210.601 174.303C211.158 173.221 211.298 171.942 210.992 170.747C210.685 169.553 209.957 168.539 208.967 167.93C207.976 167.321 206.805 167.166 205.71 167.5L189.19 172.55Z" fill="#E6E6E6"/>
<path d="M195.857 219.713C195.166 219.923 194.519 220.28 193.953 220.764C193.388 221.248 192.916 221.849 192.563 222.532C192.211 223.215 191.985 223.967 191.899 224.746C191.813 225.524 191.869 226.313 192.063 227.068C192.256 227.823 192.584 228.529 193.028 229.146C193.472 229.762 194.022 230.277 194.649 230.661C195.275 231.045 195.964 231.291 196.677 231.384C197.39 231.477 198.113 231.415 198.805 231.203L219.855 224.768C221.25 224.342 222.434 223.327 223.144 221.948C223.855 220.569 224.035 218.938 223.644 217.414C223.253 215.89 222.324 214.599 221.06 213.823C219.797 213.047 218.303 212.851 216.908 213.278L195.857 219.713Z" fill="#99F2C8"/>
<path d="M217.521 196.506L61.7534 244.124L62.1411 245.635L217.909 198.018L217.521 196.506Z" fill="#E6E6E6"/>
<path d="M373.988 399.739L361.495 403.036L343.901 351.999L362.339 347.133L373.988 399.739Z" fill="#A0616A"/>
<path d="M339.942 422.534L339.857 422.152C338.867 417.659 339.55 412.921 341.756 408.977C343.962 405.032 347.511 402.205 351.625 401.114L376.067 394.662L379.903 411.987L339.942 422.534Z" fill="#2F2E41"/>
<path d="M318.683 409.03L305.831 409.03L299.717 354.907L318.686 354.908L318.683 409.03Z" fill="#A0616A"/>
<path d="M321.797 422.453L280.684 422.451V422.058C280.684 417.435 282.366 413.002 285.36 409.733C288.355 406.464 292.415 404.628 296.65 404.628H296.651L321.797 404.629L321.797 422.453Z" fill="#2F2E41"/>
<path d="M299.706 387.902L287.227 225.533L338.887 215.137L339.091 215.097L354.211 225.708L348.948 285.464L373.179 378.628L352.257 384.639L327.987 298.235L322.433 271.96L319.587 306.103L321.7 390.303L299.706 387.902Z" fill="#2F2E41"/>
<path d="M285.627 229.216L285.49 229.027L303.342 82.2878L303.365 82.0956L303.491 81.9581C303.754 81.6708 310.008 74.9233 316.442 74.9233C317.372 74.9233 318.256 74.8976 319.104 74.8741C324.027 74.7344 327.916 74.6226 332.538 79.6691C337.247 84.8094 352.61 103.58 352.61 129.288C352.61 154.172 354.686 231.501 354.707 232.279L354.736 233.371L353.897 232.776C353.69 232.63 333.026 218.266 315.696 231.619C310.28 235.792 305.414 237.255 301.254 237.255C291.572 237.255 285.71 229.331 285.627 229.216Z" fill="#99F2C8"/>
<path d="M326.06 62.8156C338.538 55.3687 343.124 38.2886 336.303 24.666C329.482 11.0433 313.837 6.03683 301.359 13.4836C288.881 20.9304 284.295 38.0106 291.116 51.6332C297.937 65.2559 313.582 70.2624 326.06 62.8156Z" fill="#A0616A"/>
<path d="M274.292 260.751C275.51 259.72 276.507 258.411 277.211 256.914C277.916 255.418 278.311 253.771 278.369 252.089C278.428 250.408 278.148 248.733 277.549 247.183C276.95 245.632 276.047 244.244 274.904 243.116L289.527 205.46L270.38 209.307L259.43 244.476C257.821 246.698 257.015 249.488 257.164 252.316C257.313 255.144 258.407 257.814 260.239 259.82C262.071 261.827 264.514 263.029 267.104 263.201C269.694 263.372 272.252 262.501 274.292 260.751H274.292Z" fill="#A0616A"/>
<path d="M260.165 231.46L264.874 220.607C264.583 220.416 264.343 220.145 264.178 219.82C259.779 211.497 286.352 142.374 288.123 137.79C287.853 135.296 285.064 108.871 287.103 99.9643C289.504 89.4791 294.434 84.5925 303.588 83.6246C313.683 82.5896 316.406 97.5557 316.432 97.7077L316.442 136.182L304.856 180.471L278.434 239.316L260.165 231.46Z" fill="#99F2C8"/>
<path d="M317.002 48.7403C313.915 49.1787 311.587 45.7309 310.507 42.5438C309.427 39.3567 308.604 35.6462 305.921 33.9246C302.254 31.5725 297.563 34.4014 293.37 33.6254C288.636 32.7491 285.557 27.2707 285.316 22.0343C285.074 16.7979 286.983 11.7617 288.856 6.93386L289.51 12.9338C289.422 10.9003 289.814 8.87625 290.648 7.05536C291.482 5.23447 292.73 3.67761 294.272 2.53369L293.43 11.3377C293.958 6.40547 298.825 2.58367 303.276 3.60577L303.144 8.8515C308.612 8.14156 314.129 7.43063 319.614 7.9715C325.099 8.51236 330.622 10.407 334.779 14.3506C340.998 20.2497 343.269 29.9632 342.506 38.9183C341.744 47.8735 338.358 56.2862 334.829 64.4129C333.941 66.4577 332.713 68.765 330.654 69.0254C328.804 69.2595 327.111 67.5712 326.536 65.6373C325.961 63.7035 326.242 61.6026 326.586 59.6045C327.106 56.586 327.762 53.5008 327.273 50.4761C326.784 47.4515 324.791 44.4626 321.998 44.0919C319.205 43.7212 316.347 47.2064 317.69 49.9054L317.002 48.7403Z" fill="#2F2E41"/>
<path d="M429.724 422.516H244.429V420.863H429.999L429.724 422.516Z" fill="#3F3D56"/>
</svg>
