<svg width="339" height="376" viewBox="0 0 339 376" fill="none" xmlns="http://www.w3.org/2000/svg">
<g clip-path="url(#clip0_2_119)">
<path d="M327.043 138.584H9.6664C6.8385 138.581 4.12734 137.511 2.12771 135.609C0.128086 133.708 -0.996735 131.13 -1 128.441V10.143C-0.996735 7.45383 0.128086 4.87573 2.12771 2.97423C4.12734 1.07273 6.8385 0.00310508 9.6664 0H327.043C329.871 0.00310508 332.582 1.07273 334.582 2.97423C336.582 4.87573 337.706 7.45383 337.71 10.143V128.441C337.706 131.13 336.582 133.708 334.582 135.609C332.582 137.511 329.871 138.581 327.043 138.584Z" fill="#F2F2F2"/>
<path d="M253.024 132.115H60.0451C45.6646 132.099 31.8777 126.66 21.7092 116.99C11.5406 107.321 5.82079 94.2106 5.80457 80.5358V58.0534C5.82078 44.3786 11.5406 31.2682 21.7091 21.5986C31.8777 11.929 45.6646 6.48976 60.0451 6.47424H276.666C291.047 6.48976 304.834 11.929 315.002 21.5986C325.171 31.2682 330.891 44.3786 330.907 58.0534C330.884 77.6889 322.671 96.5137 308.07 110.398C293.469 124.282 273.673 132.092 253.024 132.115Z" fill="white"/>
<path d="M203.243 40.339H75.6819C74.9523 40.339 74.2526 40.0634 73.7367 39.5728C73.2208 39.0822 72.931 38.4169 72.931 37.7231C72.931 37.0293 73.2208 36.364 73.7367 35.8734C74.2526 35.3828 74.9523 35.1072 75.6819 35.1072H203.243C203.973 35.1072 204.672 35.3828 205.188 35.8734C205.704 36.364 205.994 37.0293 205.994 37.7231C205.994 38.4169 205.704 39.0822 205.188 39.5728C204.672 40.0634 203.973 40.339 203.243 40.339Z" fill="#E6E6E6"/>
<path d="M267.817 68.2486H75.6819C74.9523 68.2486 74.2526 67.973 73.7367 67.4824C73.2208 66.9918 72.931 66.3265 72.931 65.6327C72.931 64.9389 73.2208 64.2736 73.7367 63.783C74.2526 63.2924 74.9523 63.0168 75.6819 63.0168H267.817C268.547 63.0168 269.246 63.2924 269.762 63.783C270.278 64.2736 270.568 64.9389 270.568 65.6327C270.568 66.3265 270.278 66.9918 269.762 67.4824C269.246 67.973 268.547 68.2486 267.817 68.2486Z" fill="#E6E6E6"/>
<path d="M267.817 96.1583H75.6819C74.9523 96.1583 74.2526 95.8826 73.7367 95.3921C73.2208 94.9015 72.931 94.2362 72.931 93.5424C72.931 92.8486 73.2208 92.1833 73.7367 91.6927C74.2526 91.2021 74.9523 90.9265 75.6819 90.9265H267.817C268.547 90.9265 269.246 91.2021 269.762 91.6927C270.278 92.1833 270.568 92.8486 270.568 93.5424C270.568 94.2362 270.278 94.9015 269.762 95.3921C269.246 95.8826 268.547 96.1583 267.817 96.1583Z" fill="#E6E6E6"/>
<path d="M267.817 96.1583H75.6819C74.9523 96.1583 74.2526 95.8826 73.7367 95.3921C73.2208 94.9015 72.931 94.2362 72.931 93.5424C72.931 92.8486 73.2208 92.1833 73.7367 91.6927C74.2526 91.2021 74.9523 90.9265 75.6819 90.9265H267.817C268.547 90.9265 269.246 91.2021 269.762 91.6927C270.278 92.1833 270.568 92.8486 270.568 93.5424C270.568 94.2362 270.278 94.9015 269.762 95.3921C269.246 95.8826 268.547 96.1583 267.817 96.1583Z" fill="#E6E6E6"/>
<path d="M189.782 71.4519C189.813 72.2399 190.025 73.0119 190.403 73.7135C190.781 74.4152 191.317 75.0294 191.972 75.513C192.627 75.9966 193.385 76.3377 194.194 76.5124C195.002 76.6871 195.841 76.6911 196.651 76.5241L207.142 92.8896L211.607 83.88L200.96 69.7203C200.575 68.4444 199.711 67.3471 198.532 66.6365C197.353 65.926 195.94 65.6514 194.563 65.8648C193.185 66.0783 191.937 66.7649 191.056 67.7947C190.175 68.8244 189.722 70.1257 189.782 71.4519H189.782Z" fill="#FFB6B6"/>
<path d="M268.508 118.355L232.355 99.7068L220.952 89.533C220.952 89.533 215.994 88.2709 217.819 86.7381C219.644 85.2053 214.444 83.727 214.444 83.727L208.322 78.2654L199.624 84.1183L202.141 87.8293C202.141 87.8293 201.968 93.9726 205.507 92.7907C209.046 91.6088 208.162 96.7039 208.162 96.7039L229.286 127.842L268.508 118.355Z" fill="#3F3D56"/>
<path d="M161.788 100.785C181.291 100.785 197.101 85.7512 197.101 67.2055C197.101 48.6598 181.291 33.6255 161.788 33.6255C142.286 33.6255 126.476 48.6598 126.476 67.2055C126.476 85.7512 142.286 100.785 161.788 100.785Z" fill="#99F2C8"/>
<path d="M258.62 363.944H251.278L247.783 337.013H258.62V363.944Z" fill="#FFB6B6"/>
<path d="M272.496 375.042H267.23L266.29 370.314L263.883 375.042H249.918C249.248 375.042 248.596 374.838 248.057 374.461C247.518 374.084 247.119 373.553 246.92 372.945C246.721 372.337 246.731 371.685 246.95 371.083C247.168 370.481 247.583 369.962 248.134 369.6L259.286 362.276V357.496L271.017 358.162L272.496 375.042Z" fill="#2F2E41"/>
<path d="M209.895 362.944H202.553L199.058 336.013H209.895V362.944Z" fill="#FFB6B6"/>
<path d="M213.771 375.042H208.505L207.565 370.314L205.158 375.042H191.192C190.523 375.042 189.871 374.838 189.332 374.461C188.793 374.084 188.394 373.553 188.195 372.945C187.996 372.337 188.006 371.685 188.225 371.083C188.443 370.481 188.858 369.962 189.409 369.6L200.561 362.276V357.496L212.292 358.162L213.771 375.042Z" fill="#2F2E41"/>
<path d="M260.829 159.266H223.77V199.387H260.829V159.266Z" fill="#FFB6B6"/>
<path d="M224.625 179.055L218.353 186.104L207.521 207.79L180.225 269.549L174.452 282.61L179.114 305.698C179.114 305.698 179.869 321.965 179.869 324.628C179.869 330.049 184.637 333.053 184.637 333.053L188.136 350.381L222.059 349.025C222.059 349.025 220.876 329.926 213.771 325.108C206.665 320.29 203.399 295.182 203.399 295.182L199.539 284.042L237.168 241.625L237.411 256.452L237.529 263.628C237.529 263.628 232.018 310.305 238.442 319.364C244.865 328.423 238.573 327.357 238.573 327.357L238.879 346.043L279.074 346.314L270.206 292.516C270.206 292.516 265.704 289.135 268.113 285.737C270.522 282.338 265.778 278.176 265.778 278.176L267.906 236.178C267.906 236.178 265.55 228.923 268.321 227.98C271.092 227.037 268.685 220.799 268.685 220.799L269.097 212.67L260.829 187.459L224.625 179.055Z" fill="#2F2E41"/>
<path d="M261.4 159.266L265.391 147.881L268.241 144.086L269.382 133.242C269.382 103.965 262.514 108.84 262.514 108.84L258.549 98.5434L240.304 98.0012L228.616 108.574L218.924 111.827L215.128 130.58L222.059 150.592L223.77 161.435C220.507 167.163 220.783 164.454 223.485 168.754L255.698 177.158C267.101 180.953 267.101 171.194 264.814 168.754C262.528 166.314 261.4 159.266 261.4 159.266Z" fill="#3F3D56"/>
<path d="M247.07 94.3618C256.411 94.3618 263.983 87.161 263.983 78.2783C263.983 69.3956 256.411 62.1948 247.07 62.1948C237.728 62.1948 230.156 69.3956 230.156 78.2783C230.156 87.161 237.728 94.3618 247.07 94.3618Z" fill="#FFB6B6"/>
<path d="M269.65 99.747C269.809 100.003 269.905 100.289 269.932 100.585C269.959 100.882 269.915 101.18 269.804 101.457C269.692 101.735 269.517 101.985 269.29 102.19C269.063 102.394 268.79 102.547 268.492 102.637C266.223 103.352 264.826 105.44 263.195 107.11C261.571 108.774 258.954 110.157 256.878 109.024C254.809 107.896 254.666 105.017 252.933 103.455C251.245 101.937 248.44 102.122 246.456 103.277L246.397 103.311C246.054 103.524 245.654 103.636 245.245 103.634C244.836 103.632 244.437 103.517 244.096 103.301C243.756 103.086 243.489 102.781 243.329 102.423C243.17 102.065 243.124 101.67 243.197 101.288C243.892 97.7721 244.587 94.2567 245.281 90.7416C243.457 94.9219 240.807 98.7315 237.476 101.965C236.559 102.971 235.396 103.749 234.089 104.231C232.904 104.589 231.752 103.423 230.6 103.634C233.462 101.254 243.086 85.9976 241.365 75.7994C239.341 76.0163 237.317 76.2332 235.293 76.4501C235.073 75.5392 234.605 74.6994 233.936 74.0157C234.017 74.9022 233.899 75.7951 233.588 76.6344C232.744 76.7266 231.894 76.8133 231.051 76.9055C229.876 77.0302 228.599 77.1386 227.59 76.5531C225.908 75.5772 225.857 73.2675 226.335 71.4458C227.738 66.1488 231.991 61.7193 237.197 59.3989C242.402 57.0838 243.942 62.2398 249.426 60.5917C260.259 57.3387 268.561 62.9013 271.485 73.2242C273.943 81.8826 272.158 91.0723 269.65 99.747Z" fill="#2F2E41"/>
<path d="M306.474 376.392H285.764L285.675 376.238C285.41 375.781 285.154 375.298 284.915 374.8C282.782 370.457 281.88 365.49 281.085 361.108L280.486 357.805C280.413 357.405 280.468 356.993 280.643 356.623C280.817 356.252 281.104 355.94 281.467 355.726C281.83 355.511 282.251 355.405 282.678 355.42C283.104 355.435 283.517 355.57 283.862 355.809C287.009 357.987 290.158 360.163 293.308 362.336C294.5 363.162 295.862 364.117 297.167 365.149C297.293 364.568 297.424 363.985 297.556 363.41C297.647 363.013 297.86 362.651 298.169 362.37C298.477 362.089 298.867 361.902 299.288 361.832C299.709 361.763 300.142 361.815 300.531 361.981C300.921 362.147 301.25 362.42 301.476 362.765L303.899 366.467C305.666 369.171 307.226 371.835 306.908 374.708C306.91 374.743 306.907 374.778 306.9 374.813C306.836 375.284 306.718 375.748 306.548 376.196L306.474 376.392Z" fill="#F0F0F0"/>
<path d="M337.261 375.818L140.46 376C140.263 375.999 140.075 375.924 139.937 375.792C139.798 375.659 139.72 375.48 139.72 375.293C139.72 375.107 139.798 374.928 139.937 374.795C140.075 374.663 140.263 374.588 140.46 374.587L337.261 374.405C337.457 374.405 337.645 374.48 337.784 374.613C337.922 374.745 338 374.924 338 375.111C338 375.298 337.922 375.477 337.784 375.61C337.645 375.742 337.457 375.817 337.261 375.818Z" fill="#CACACA"/>
<path d="M158.578 112.402L136.931 95.0179C136.191 94.4223 135.73 93.572 135.648 92.6534C135.567 91.7349 135.872 90.8231 136.497 90.1182L140.481 85.6318C141.107 84.9281 142.001 84.4895 142.967 84.412C143.933 84.3346 144.892 84.6247 145.634 85.2187L167.281 102.603C168.021 103.198 168.482 104.048 168.563 104.967C168.645 105.886 168.34 106.797 167.715 107.502L163.731 111.989C163.105 112.692 162.21 113.131 161.245 113.208C160.279 113.286 159.32 112.996 158.578 112.402Z" fill="#3F3D56"/>
<path d="M138.067 90.4798C137.73 90.8597 137.566 91.3511 137.61 91.846C137.654 92.341 137.902 92.7993 138.301 93.1202L159.948 110.504C160.348 110.824 160.865 110.981 161.385 110.939C161.906 110.897 162.388 110.661 162.725 110.282L166.709 105.795C167.046 105.415 167.21 104.924 167.166 104.429C167.122 103.934 166.874 103.476 166.475 103.155L144.828 85.7709C144.428 85.4508 143.912 85.2945 143.391 85.3362C142.871 85.378 142.389 85.6143 142.051 85.9935L138.067 90.4798Z" fill="white"/>
<path d="M150.775 97.2377C150.7 97.3376 150.602 97.4196 150.487 97.477C150.373 97.5345 150.247 97.5658 150.117 97.5686L146.716 97.6429C146.607 97.6453 146.498 97.6272 146.396 97.5896C146.294 97.5521 146.201 97.4958 146.122 97.424C146.043 97.3522 145.98 97.2663 145.936 97.1712C145.891 97.0762 145.867 96.9737 145.865 96.8698C145.862 96.7659 145.881 96.6626 145.921 96.5657C145.96 96.4687 146.02 96.3802 146.095 96.305C146.171 96.2299 146.261 96.1696 146.361 96.1276C146.461 96.0857 146.569 96.0628 146.678 96.0604L148.903 96.0118L146.712 90.5134C146.634 90.3172 146.641 90.0998 146.732 89.9088C146.823 89.7179 146.99 89.5689 147.196 89.4946C147.402 89.4203 147.63 89.4268 147.832 89.5126C148.033 89.5985 148.19 89.7566 148.268 89.9524L150.877 96.4969C150.924 96.6153 150.94 96.7427 150.925 96.8685C150.91 96.9942 150.863 97.1146 150.789 97.2196L150.775 97.2377Z" fill="#99F2C8"/>
<path d="M151.212 98.6195C152.032 98.7341 152.816 99.0183 153.508 99.4522C154.201 99.8861 154.785 100.459 155.219 101.131C155.653 101.802 155.927 102.556 156.022 103.34C156.117 104.123 156.03 104.917 155.767 105.664L171.734 117.361L161.831 120.602L148.186 108.998C146.894 108.495 145.841 107.559 145.226 106.367C144.612 105.175 144.478 103.81 144.851 102.531C145.224 101.252 146.078 100.147 147.25 99.4259C148.422 98.7051 149.832 98.4181 151.212 98.6195L151.212 98.6195Z" fill="#FFB6B6"/>
<path d="M234.341 104.403L193.46 128.305C193.46 128.305 176.977 122.505 180.198 119.821C183.419 117.136 173.164 115.321 173.164 115.321L161.836 108.073L155.262 115.338C155.262 115.338 156.46 127.139 158.498 125.095C160.536 123.052 163.582 128.634 163.582 128.634C163.582 128.634 164.482 134.866 170.284 133.298C176.086 131.73 191.653 148.17 191.653 148.17L241.966 130.326L234.341 104.403Z" fill="#3F3D56"/>
<path d="M160.547 80.6758C160.073 80.6758 159.605 80.5709 159.181 80.3693C158.758 80.1677 158.389 79.875 158.105 79.5144L150.617 70.0209C150.377 69.7159 150.202 69.3689 150.102 68.9996C150.003 68.6303 149.981 68.246 150.037 67.8686C150.094 67.4912 150.228 67.1281 150.433 66.8001C150.637 66.472 150.907 66.1855 151.228 65.9568C151.876 65.4948 152.69 65.2965 153.491 65.4054C153.888 65.4593 154.27 65.587 154.615 65.7813C154.96 65.9755 155.261 66.2325 155.502 66.5375L160.4 72.7478L172.981 54.8024C173.431 54.1618 174.129 53.717 174.923 53.566C175.717 53.415 176.541 53.5701 177.215 53.9972C177.889 54.4243 178.357 55.0884 178.515 55.8434C178.674 56.5984 178.511 57.3825 178.062 58.0231L163.087 79.383C162.816 79.7693 162.452 80.0882 162.025 80.313C161.597 80.5378 161.12 80.6619 160.632 80.6749C160.603 80.6754 160.575 80.6758 160.547 80.6758Z" fill="white"/>
</g>
<defs>
<clipPath id="clip0_2_119">
<rect width="339" height="376" fill="white"/>
</clipPath>
</defs>
</svg>
